# xmcd
#
# Track frame offsets: 
#        150
#        22186
#        40230
#        57243
#        77050
#        101474
#        107827
#        124507
#        146747
#        166900
#        186560
#
# Disc length: 2781 seconds
#
# Revision: 1
# Processed by: cddbd v1.5.2PL0 Copyright (c) Steve Scherf et al.
# Submitted via: ExactAudioCopyFreeDBPlugin 1.0
#
DISCID=960adb0b
DTITLE=Brunorock - War Maniacs
DYEAR=2009
DGENRE=Melodic Hard Rock
TTITLE0=Breaktrough
TTITLE1=Liar
TTITLE2=Julia
TTITLE3=Last Ride
TTITLE4=In Search Of Faith
TTITLE5=Forever Free
TTITLE6=Time To Run
TTITLE7=Was Maniacs
TTITLE8=Touch Too Much
TTITLE9=Temptations
TTITLE10=Painless Skies
EXTD=
EXTT0=
EXTT1=
EXTT2=
EXTT3=
EXTT4=
EXTT5=
EXTT6=
EXTT7=
EXTT8=
EXTT9=
EXTT10=
PLAYORDER=
